<svg width="945" height="945" xmlns="http://www.w3.org/2000/svg" xmlns:xlink="http://www.w3.org/1999/xlink" overflow="hidden"><defs><clipPath id="clip0"><rect x="856" y="220" width="945" height="945"/></clipPath></defs><g clip-path="url(#clip0)" transform="translate(-856 -220)"><path d="M1141.47 475.938C1158.2 475.938 1171 463.141 1171 446.406L1171 387.344C1171 370.609 1158.2 357.812 1141.47 357.812 1124.73 357.812 1111.94 370.609 1111.94 387.344L1111.94 446.406C1111.94 463.141 1124.73 475.938 1141.47 475.938Z" fill="#FFFFFF" fill-rule="nonzero" fill-opacity="1"/><path d="M1052.88 889.375 1210.38 889.375 1210.38 968.125 1052.88 968.125 1052.88 889.375ZM1052.88 771.25 1210.38 771.25 1210.38 850 1052.88 850 1052.88 771.25ZM1052.88 653.125 1210.38 653.125 1210.38 731.875 1052.88 731.875 1052.88 653.125ZM1407.25 653.125 1407.25 731.875 1249.75 731.875 1249.75 653.125 1407.25 653.125ZM1604.12 653.125 1604.12 731.875 1446.62 731.875 1446.62 653.125 1604.12 653.125ZM1604.12 850 1446.62 850 1446.62 771.25 1604.12 771.25 1604.12 850ZM1604.12 968.125 1446.62 968.125 1446.62 889.375 1604.12 889.375 1604.12 968.125ZM1249.75 850 1249.75 771.25 1407.25 771.25 1407.25 850 1249.75 850ZM1249.75 968.125 1249.75 889.375 1407.25 889.375 1407.25 968.125 1249.75 968.125ZM993.812 1027.19 1663.19 1027.19 1663.19 594.062 993.812 594.062 993.812 1027.19Z" fill="#FFFFFF" fill-rule="nonzero" fill-opacity="1"/><path d="M1515.53 475.938C1532.27 475.938 1545.06 463.141 1545.06 446.406L1545.06 387.344C1545.06 370.609 1532.27 357.812 1515.53 357.812 1498.8 357.812 1486 370.609 1486 387.344L1486 446.406C1486 463.141 1498.8 475.938 1515.53 475.938Z" fill="#FFFFFF" fill-rule="nonzero" fill-opacity="1"/><path d="M1584.44 416.875 1584.44 446.406C1584.44 484.797 1553.92 515.312 1515.53 515.312 1477.14 515.312 1446.62 484.797 1446.62 446.406L1446.62 416.875 1210.38 416.875 1210.38 446.406C1210.38 484.797 1179.86 515.312 1141.47 515.312 1103.08 515.312 1072.56 484.797 1072.56 446.406L1072.56 416.875 993.812 416.875 993.812 554.688 1663.19 554.688 1663.19 416.875 1584.44 416.875Z" fill="#FFFFFF" fill-rule="nonzero" fill-opacity="1"/></g></svg>