<svg width="945" height="946" xmlns="http://www.w3.org/2000/svg" xmlns:xlink="http://www.w3.org/1999/xlink" overflow="hidden"><defs><clipPath id="clip0"><rect x="852" y="48" width="945" height="946"/></clipPath><clipPath id="clip1"><rect x="852" y="49" width="945" height="945"/></clipPath><clipPath id="clip2"><rect x="852" y="49" width="945" height="945"/></clipPath><clipPath id="clip3"><rect x="852" y="49" width="945" height="945"/></clipPath></defs><g clip-path="url(#clip0)" transform="translate(-852 -48)"><g clip-path="url(#clip1)"><g clip-path="url(#clip2)"><g clip-path="url(#clip3)"><path d="M1521.38 346.281C1497.75 346.281 1478.06 326.594 1479.05 301.984 1479.05 278.359 1498.73 258.672 1522.36 258.672 1545.98 258.672 1565.67 278.359 1565.67 301.984 1565.67 313.797 1560.75 324.625 1552.88 332.5 1544.02 341.359 1533.19 346.281 1521.38 346.281ZM1479.05 209.453C1457.39 217.328 1440.66 234.062 1429.83 253.75 1416.05 280.328 1414.08 310.844 1424.91 338.406L1472.16 440.781 1503.66 505.75C1506.61 512.641 1513.5 516.578 1521.38 516.578 1529.25 516.578 1536.14 512.641 1539.09 505.75L1570.59 440.781 1617.84 339.391C1622.77 327.578 1624.73 314.781 1624.73 301.984 1624.73 233.078 1553.86 180.906 1479.05 209.453Z" fill="#FFFFFF" fill-rule="nonzero" fill-opacity="1"/><path d="M1304.81 765.625 1147.31 686.875 1147.31 365.969 1304.81 444.719 1304.81 765.625ZM1107.94 686.875 989.812 745.938 989.812 425.031 1107.94 365.969 1107.94 686.875ZM1653.28 356.125 1628.67 409.281 1659.19 425.031 1659.19 745.938 1541.06 686.875 1541.06 555.953 1501.69 555.953 1501.69 686.875 1344.19 765.625 1344.19 444.719 1414.08 409.281 1389.47 356.125 1324.5 388.609 1127.62 290.172 930.75 388.609 930.75 841.422 1127.62 742.984 1324.5 841.422 1521.38 742.984 1718.25 841.422 1718.25 388.609 1653.28 356.125Z" fill="#FFFFFF" fill-rule="nonzero" fill-opacity="1"/></g></g></g></g></svg>