<svg width="946" height="947" xmlns="http://www.w3.org/2000/svg" xmlns:xlink="http://www.w3.org/1999/xlink" overflow="hidden"><defs><clipPath id="clip0"><rect x="852" y="137" width="946" height="947"/></clipPath><clipPath id="clip1"><rect x="853" y="138" width="945" height="945"/></clipPath><clipPath id="clip2"><rect x="853" y="138" width="945" height="945"/></clipPath><clipPath id="clip3"><rect x="853" y="138" width="945" height="945"/></clipPath></defs><g clip-path="url(#clip0)" transform="translate(-852 -137)"><g clip-path="url(#clip1)"><g clip-path="url(#clip2)"><g clip-path="url(#clip3)"><path d="M1238.88 425.438C1246.75 417.562 1251.67 406.734 1251.67 394.922 1251.67 383.109 1246.75 372.281 1238.88 364.406L1103.03 229.547C1095.16 221.672 1084.33 216.75 1073.5 216.75 1062.67 216.75 1050.86 221.672 1042.98 229.547L1028.22 244.312 1224.11 440.203 1238.88 425.438Z" fill="#FFFFFF" fill-rule="nonzero" fill-opacity="1"/><path d="M1436.73 772.922C1432.8 776.859 1426.89 778.828 1421.97 778.828 1417.05 778.828 1411.14 776.859 1407.2 772.922L1163.08 529.781C1159.14 525.844 1157.17 519.938 1157.17 515.016 1157.17 510.094 1159.14 504.188 1163.08 500.25L1193.59 470.719 997.703 274.828C984.906 287.625 973.094 299.438 965.219 307.312 945.531 326.016 933.719 350.625 932.734 377.203 929.781 421.5 940.609 463.828 955.375 505.172 971.125 541.594 991.797 576.047 1014.44 608.531 1095.16 729.609 1196.55 834.938 1314.67 918.609 1334.36 933.375 1355.03 946.172 1376.69 957.984 1425.91 982.594 1478.08 1000.31 1534.19 1004.25 1571.59 1007.2 1609 992.438 1634.59 964.875L1661.17 938.297 1466.27 742.406 1436.73 772.922Z" fill="#FFFFFF" fill-rule="nonzero" fill-opacity="1"/><path d="M1706.45 832.969 1570.61 697.125C1562.73 689.25 1551.91 684.328 1540.09 684.328 1528.28 684.328 1517.45 689.25 1509.58 697.125L1494.81 712.875 1690.7 908.766 1705.47 894C1713.34 886.125 1718.27 875.297 1718.27 863.484 1718.27 851.672 1714.33 840.844 1706.45 832.969Z" fill="#FFFFFF" fill-rule="nonzero" fill-opacity="1"/></g></g></g></g></svg>